<svg width="393" height="219" viewBox="0 0 393 219" fill="none" xmlns="http://www.w3.org/2000/svg">
<path d="M14.94 174V48H39.06L92.7 136.92H79.92L132.66 48H156.6L156.96 174H129.6L129.42 89.94H134.46L92.34 160.68H79.2L36.18 89.94H42.3V174H14.94ZM230.954 175.44C220.634 175.44 211.454 173.28 203.414 168.96C195.494 164.64 189.194 158.76 184.514 151.32C179.954 143.76 177.674 135.18 177.674 125.58C177.674 115.86 179.954 107.28 184.514 99.84C189.194 92.28 195.494 86.4 203.414 82.2C211.454 77.88 220.634 75.72 230.954 75.72C241.154 75.72 250.274 77.88 258.314 82.2C266.354 86.4 272.654 92.22 277.214 99.66C281.774 107.1 284.054 115.74 284.054 125.58C284.054 135.18 281.774 143.76 277.214 151.32C272.654 158.76 266.354 164.64 258.314 168.96C250.274 173.28 241.154 175.44 230.954 175.44ZM230.954 152.4C235.634 152.4 239.834 151.32 243.554 149.16C247.274 147 250.214 143.94 252.374 139.98C254.534 135.9 255.614 131.1 255.614 125.58C255.614 119.94 254.534 115.14 252.374 111.18C250.214 107.22 247.274 104.16 243.554 102C239.834 99.84 235.634 98.76 230.954 98.76C226.274 98.76 222.074 99.84 218.354 102C214.634 104.16 211.634 107.22 209.354 111.18C207.194 115.14 206.114 119.94 206.114 125.58C206.114 131.1 207.194 135.9 209.354 139.98C211.634 143.94 214.634 147 218.354 149.16C222.074 151.32 226.274 152.4 230.954 152.4ZM333.7 176.16C324.94 176.16 316.24 175.02 307.6 172.74C298.96 170.34 291.64 166.98 285.64 162.66L296.98 140.34C301.78 143.82 307.36 146.58 313.72 148.62C320.08 150.66 326.5 151.68 332.98 151.68C340.3 151.68 346.06 150.24 350.26 147.36C354.46 144.48 356.56 140.52 356.56 135.48C356.56 130.68 354.7 126.9 350.98 124.14C347.26 121.38 341.26 120 332.98 120H319.66V100.74L354.76 60.96L358 71.4H291.94V48H380.14V66.9L345.22 106.68L330.46 98.22H338.92C354.4 98.22 366.1 101.7 374.02 108.66C381.94 115.62 385.9 124.56 385.9 135.48C385.9 142.56 384.04 149.22 380.32 155.46C376.6 161.58 370.9 166.56 363.22 170.4C355.54 174.24 345.7 176.16 333.7 176.16Z" fill="#322A2A"/>
</svg>
